<svg width="186" height="186" viewBox="0 0 186 186" fill="none" xmlns="http://www.w3.org/2000/svg">
<path d="M149.574 48.5229C158.411 48.5229 165.574 41.3595 165.574 32.5229C165.574 23.6864 158.411 16.5229 149.574 16.5229C140.738 16.5229 133.574 23.6864 133.574 32.5229C133.574 41.3595 140.738 48.5229 149.574 48.5229Z" fill="url(#paint0_linear_88_7)"/>
<path d="M28.0555 26.3573C50.1212 4.84358 80.2415 -3.49972 108.556 1.32648C117.416 2.83668 119.76 13.5344 113.405 19.8898C110.37 22.9251 105.995 24.1037 101.737 23.5619C81.0295 20.9274 59.3679 27.5608 43.4647 43.4639C16.1784 70.7502 16.1784 114.99 43.4647 142.276C70.7515 169.562 114.991 169.562 142.277 142.276C158.856 125.697 165.361 102.859 161.793 81.3685C161.065 76.9825 162.194 72.4065 165.337 69.2629C171.531 63.0689 181.966 65.1762 183.761 73.7495C189.972 103.407 181.565 135.514 158.54 158.539L157.686 159.383C121.641 194.527 64.1015 194.526 28.0555 159.383L27.2013 158.539C-9.0671 122.271 -9.0671 63.4688 27.2013 27.2004L28.0555 26.3573Z" fill="url(#paint1_linear_88_7)"/>
<defs>
<linearGradient id="paint0_linear_88_7" x1="165.574" y1="45.6997" x2="133.574" y2="19.3461" gradientUnits="userSpaceOnUse">
<stop stop-color="#171717"/>
<stop offset="1" stop-color="#7D7D7D"/>
</linearGradient>
<linearGradient id="paint1_linear_88_7" x1="-0.468508" y1="14.4824" x2="153.814" y2="163.265" gradientUnits="userSpaceOnUse">
<stop stop-color="white"/>
<stop offset="1" stop-color="#171717"/>
</linearGradient>
</defs>
</svg>
