<svg width="577" height="186" viewBox="0 0 577 186" fill="none" xmlns="http://www.w3.org/2000/svg">
<path d="M525.644 172.261V128.562H530.621V172.261H525.644ZM528.193 172.261V167.891H554.898V172.261H528.193ZM528.193 151.686V147.316H552.713V151.686H528.193ZM528.193 132.932V128.562H554.412V132.932H528.193Z" fill="#727272"/>
<path d="M498.9 172.868C494.449 172.868 490.585 171.958 487.308 170.137C484.03 168.316 481.501 165.767 479.721 162.49C477.941 159.172 477.051 155.267 477.051 150.776C477.051 146.285 477.92 142.34 479.66 138.941C481.441 135.502 483.889 132.811 487.004 130.869C490.16 128.927 493.781 127.956 497.868 127.956C501.065 127.956 503.958 128.562 506.547 129.776C509.177 130.99 511.322 132.669 512.98 134.814C514.68 136.958 515.712 139.447 516.076 142.279H511.099C510.694 139.285 509.298 136.898 506.911 135.117C504.564 133.337 501.611 132.447 498.05 132.447C494.854 132.447 492.062 133.216 489.675 134.753C487.287 136.25 485.426 138.354 484.091 141.065C482.796 143.776 482.149 146.973 482.149 150.655C482.149 154.337 482.816 157.513 484.152 160.183C485.527 162.813 487.49 164.836 490.039 166.253C492.628 167.669 495.724 168.377 499.325 168.377C501.793 168.377 503.998 168.033 505.94 167.345C507.882 166.617 509.642 165.504 511.22 164.007L516.197 165.828C513.972 168.174 511.402 169.935 508.489 171.108C505.616 172.281 502.42 172.868 498.9 172.868ZM511.22 165.828V151.686L513.102 153.568H499.264V149.198H516.197V165.828H511.22Z" fill="#727272"/>
<path d="M439.939 172.261V128.562H456.083C459.199 128.562 461.849 129.068 464.034 130.08C466.219 131.091 467.878 132.508 469.011 134.328C470.184 136.109 470.771 138.233 470.771 140.701C470.771 143.169 470.184 145.334 469.011 147.195C467.878 149.016 466.219 150.452 464.034 151.504C461.849 152.516 459.199 153.022 456.083 153.022H443.581V148.652H455.901C459.138 148.652 461.586 147.944 463.245 146.527C464.944 145.111 465.794 143.169 465.794 140.701C465.794 138.273 464.965 136.372 463.306 134.996C461.647 133.62 459.179 132.932 455.901 132.932H444.916V172.261H439.939ZM465.551 172.261L442.306 150.594H449.104L473.077 172.261H465.551Z" fill="#727272"/>
<path d="M403.192 172.261V128.562H408.169V172.261H403.192ZM405.741 172.261V167.891H432.445V172.261H405.741ZM405.741 151.686V147.316H430.261V151.686H405.741ZM405.741 132.932V128.562H431.96V132.932H405.741Z" fill="#727272"/>
<path d="M387.781 172.261V128.562H392.758V172.261H387.781Z" fill="#727272"/>
<path d="M361.307 172.868C358.313 172.868 355.541 172.322 352.992 171.229C350.483 170.096 348.298 168.539 346.437 166.556C344.576 164.533 343.139 162.166 342.128 159.455C341.116 156.704 340.611 153.689 340.611 150.412C340.611 147.134 341.116 144.14 342.128 141.429C343.139 138.678 344.556 136.311 346.376 134.328C348.238 132.305 350.423 130.747 352.931 129.655C355.48 128.522 358.252 127.956 361.246 127.956C364.523 127.956 367.457 128.623 370.046 129.958C372.676 131.294 374.821 133.175 376.48 135.603C378.179 138.031 379.231 140.863 379.636 144.1H374.659C374.174 140.499 372.737 137.666 370.35 135.603C368.003 133.499 364.989 132.447 361.307 132.447C358.191 132.447 355.46 133.216 353.113 134.753C350.766 136.25 348.946 138.354 347.651 141.065C346.356 143.736 345.709 146.851 345.709 150.412C345.709 153.972 346.356 157.108 347.651 159.819C348.946 162.49 350.766 164.594 353.113 166.131C355.46 167.628 358.171 168.377 361.246 168.377C365.009 168.377 368.084 167.325 370.471 165.221C372.899 163.117 374.335 160.284 374.78 156.724H379.757C379.353 159.961 378.301 162.793 376.601 165.221C374.942 167.648 372.798 169.53 370.168 170.865C367.578 172.2 364.625 172.868 361.307 172.868Z" fill="#727272"/>
<path d="M298.106 172.261V128.562H303.265L328.331 165.342L327.602 165.464V128.562H332.336V172.261H327.178L302.112 135.481L302.84 135.36V172.261H298.106Z" fill="#727272"/>
<path d="M269.026 172.868C265.991 172.868 263.199 172.322 260.65 171.229C258.142 170.096 255.957 168.518 254.096 166.495C252.234 164.432 250.778 162.024 249.726 159.273C248.714 156.521 248.208 153.507 248.208 150.23C248.208 145.9 249.099 142.056 250.879 138.698C252.659 135.34 255.107 132.71 258.223 130.808C261.379 128.906 264.96 127.956 268.965 127.956C273.052 127.956 276.653 128.906 279.768 130.808C282.924 132.71 285.393 135.34 287.173 138.698C288.953 142.056 289.843 145.921 289.843 150.29C289.843 153.568 289.317 156.582 288.265 159.334C287.254 162.085 285.817 164.472 283.956 166.495C282.095 168.518 279.89 170.096 277.341 171.229C274.792 172.322 272.02 172.868 269.026 172.868ZM268.965 168.377C272.081 168.377 274.812 167.608 277.159 166.07C279.546 164.492 281.407 162.328 282.742 159.576C284.078 156.825 284.745 153.689 284.745 150.169C284.745 146.689 284.078 143.614 282.742 140.944C281.448 138.273 279.607 136.19 277.219 134.692C274.873 133.195 272.121 132.447 268.965 132.447C265.809 132.447 263.058 133.195 260.711 134.692C258.364 136.19 256.543 138.273 255.249 140.944C253.954 143.574 253.307 146.649 253.307 150.169C253.307 153.73 253.954 156.886 255.249 159.637C256.584 162.348 258.425 164.492 260.772 166.07C263.118 167.608 265.85 168.377 268.965 168.377Z" fill="#727272"/>
<path d="M224.274 172.868C221.28 172.868 218.508 172.322 215.959 171.229C213.451 170.096 211.266 168.539 209.404 166.556C207.543 164.533 206.107 162.166 205.095 159.455C204.084 156.704 203.578 153.689 203.578 150.412C203.578 147.134 204.084 144.14 205.095 141.429C206.107 138.678 207.523 136.311 209.344 134.328C211.205 132.305 213.39 130.747 215.899 129.655C218.448 128.522 221.219 127.956 224.213 127.956C227.491 127.956 230.424 128.623 233.014 129.958C235.644 131.294 237.788 133.175 239.447 135.603C241.147 138.031 242.199 140.863 242.603 144.1H237.626C237.141 140.499 235.705 137.666 233.317 135.603C230.971 133.499 227.956 132.447 224.274 132.447C221.159 132.447 218.427 133.216 216.081 134.753C213.734 136.25 211.913 138.354 210.618 141.065C209.324 143.736 208.676 146.851 208.676 150.412C208.676 153.972 209.324 157.108 210.618 159.819C211.913 162.49 213.734 164.594 216.081 166.131C218.427 167.628 221.138 168.377 224.213 168.377C227.976 168.377 231.051 167.325 233.439 165.221C235.866 163.117 237.303 160.284 237.748 156.724H242.725C242.32 159.961 241.268 162.793 239.569 165.221C237.91 167.648 235.765 169.53 233.135 170.865C230.546 172.2 227.592 172.868 224.274 172.868Z" fill="#727272"/>
<path d="M553.391 115.783V79.246H539.129V72.084H577.001V79.246H562.738V115.783H553.391Z" fill="#171717"/>
<path d="M501.405 115.783V72.084H520.948C524.104 72.084 526.855 72.631 529.202 73.723C531.549 74.775 533.37 76.272 534.664 78.214C535.959 80.157 536.606 82.422 536.606 85.012C536.606 87.561 535.959 89.807 534.664 91.749C533.37 93.651 531.549 95.148 529.202 96.24C526.855 97.292 524.104 97.818 520.948 97.818H508.809V90.96H520.705C522.93 90.96 524.63 90.454 525.803 89.443C527.017 88.391 527.624 86.934 527.624 85.073C527.624 83.171 527.037 81.735 525.864 80.764C524.691 79.752 522.971 79.246 520.705 79.246H510.751V115.783H501.405ZM526.046 115.783L508.506 93.084H518.399L538.67 115.783H526.046Z" fill="#171717"/>
<path d="M474.405 116.39C471.169 116.39 468.174 115.844 465.423 114.752C462.712 113.659 460.345 112.122 458.322 110.139C456.339 108.116 454.782 105.729 453.649 102.977C452.556 100.186 452.01 97.11 452.01 93.752C452.01 89.301 452.961 85.417 454.862 82.099C456.764 78.741 459.394 76.131 462.753 74.27C466.151 72.409 470.015 71.478 474.345 71.478C478.755 71.478 482.639 72.409 485.998 74.27C489.356 76.131 491.986 78.741 493.888 82.099C495.83 85.458 496.801 89.362 496.801 93.813C496.801 97.131 496.235 100.186 495.102 102.977C494.009 105.729 492.451 108.116 490.428 110.139C488.446 112.122 486.079 113.659 483.327 114.752C480.616 115.844 477.642 116.39 474.405 116.39ZM474.345 108.986C476.894 108.986 479.139 108.339 481.082 107.044C483.024 105.749 484.541 103.969 485.634 101.703C486.767 99.397 487.333 96.726 487.333 93.691C487.333 90.697 486.787 88.088 485.694 85.862C484.602 83.637 483.085 81.917 481.142 80.703C479.2 79.489 476.934 78.883 474.345 78.883C471.796 78.883 469.55 79.489 467.608 80.703C465.666 81.917 464.148 83.637 463.056 85.862C462.004 88.047 461.478 90.657 461.478 93.691C461.478 96.767 462.024 99.457 463.117 101.764C464.209 104.029 465.726 105.81 467.669 107.105C469.611 108.359 471.836 108.986 474.345 108.986Z" fill="#171717"/>
<path d="M412.683 115.783V72.084H433.44C436.677 72.084 439.449 72.651 441.755 73.784C444.102 74.917 445.902 76.495 447.156 78.518C448.451 80.541 449.099 82.908 449.099 85.619C449.099 88.33 448.451 90.717 447.156 92.781C445.862 94.844 444.041 96.463 441.694 97.636C439.388 98.769 436.636 99.335 433.44 99.335H420.088V92.174H432.954C435.099 92.174 436.758 91.587 437.931 90.414C439.145 89.2 439.752 87.622 439.752 85.68C439.752 83.737 439.145 82.18 437.931 81.006C436.758 79.833 435.099 79.246 432.954 79.246H422.03V115.783H412.683Z" fill="#171717"/>
<path d="M391.056 116.329C385.391 116.329 380.859 115.075 377.46 112.567C374.062 110.017 372.079 106.437 371.513 101.824H380.495C380.778 104.171 381.911 106.032 383.894 107.408C385.876 108.743 388.405 109.41 391.48 109.41C393.989 109.41 395.911 108.965 397.246 108.075C398.622 107.185 399.31 105.991 399.31 104.494C399.31 103.078 398.905 101.945 398.096 101.096C397.287 100.205 395.891 99.497 393.908 98.971L385.775 96.726C381.608 95.552 378.553 93.954 376.611 91.931C374.709 89.868 373.758 87.298 373.758 84.223C373.758 81.593 374.426 79.327 375.761 77.426C377.137 75.483 379.059 74.007 381.527 72.995C383.995 71.943 386.888 71.417 390.206 71.417C395.304 71.417 399.37 72.631 402.405 75.059C405.44 77.446 407.159 80.622 407.564 84.587H398.581C398.177 82.443 397.186 80.865 395.608 79.853C394.07 78.842 392.087 78.336 389.66 78.336C387.556 78.336 385.876 78.741 384.622 79.55C383.368 80.359 382.741 81.451 382.741 82.827C382.741 83.879 383.085 84.85 383.772 85.74C384.46 86.59 385.897 87.318 388.082 87.925L396.214 90.171C400.503 91.344 403.578 92.963 405.44 95.026C407.341 97.049 408.292 99.619 408.292 102.734C408.292 107.104 406.775 110.462 403.74 112.809C400.706 115.156 396.477 116.329 391.056 116.329Z" fill="#171717"/>
<path d="M329.408 115.783V72.084H341.486L360.908 110.685L357.934 111.413V72.084H367.038V115.783H354.96L335.538 77.183L338.512 76.454V115.783H329.408Z" fill="#171717"/>
<path d="M283.141 115.783L298.799 72.084H306.811L292.427 115.783H283.141ZM315.186 115.783L300.863 72.084H309.238L324.897 115.783H315.186ZM291.395 98.849H315.915V106.132H291.395V98.849Z" fill="#171717"/>
<path d="M243.935 115.783V72.084H263.478C266.634 72.084 269.386 72.63 271.732 73.723C274.079 74.775 275.9 76.272 277.195 78.214C278.489 80.156 279.137 82.422 279.137 85.011C279.137 87.561 278.489 89.806 277.195 91.748C275.9 93.65 274.079 95.147 271.732 96.24C269.386 97.292 266.634 97.818 263.478 97.818H251.34V90.959H263.235C265.461 90.959 267.16 90.454 268.334 89.442C269.547 88.39 270.154 86.933 270.154 85.072C270.154 83.17 269.568 81.734 268.394 80.763C267.221 79.751 265.501 79.246 263.235 79.246H253.282V115.783H243.935ZM268.576 115.783L251.036 93.084H260.929L281.2 115.783H268.576Z" fill="#171717"/>
<path d="M216.263 115.783V79.246H202V72.084H239.872V79.246H225.609V115.783H216.263Z" fill="#171717"/>
<path d="M429.946 59.3055V52.0224H440.992C444.148 52.0224 446.818 51.3953 449.003 50.141C451.229 48.8462 452.908 47.0861 454.041 44.8607C455.214 42.6353 455.801 40.0862 455.801 37.2135C455.801 34.3811 455.234 31.8928 454.102 29.7483C452.969 27.6038 451.289 25.9247 449.064 24.7108C446.879 23.497 444.188 22.89 440.992 22.89H430.128V15.6069H440.992C445.888 15.6069 450.157 16.4971 453.798 18.2774C457.44 20.0173 460.252 22.5259 462.234 25.8033C464.257 29.0402 465.269 32.8841 465.269 37.3348C465.269 41.7856 464.257 45.6699 462.234 48.9878C460.211 52.2652 457.379 54.8143 453.737 56.6351C450.136 58.4154 445.908 59.3055 441.053 59.3055H429.946ZM424.241 59.3055V15.6069H433.587V59.3055H424.241Z" fill="#171717"/>
<path d="M380.559 59.3055V15.6069H392.637L412.058 54.2074L409.084 54.9357V15.6069H418.188V59.3055H406.11L386.689 20.7051L389.663 19.9768V59.3055H380.559Z" fill="#171717"/>
<path d="M356.209 59.9125C349.978 59.9125 345.305 58.2131 342.189 54.8143C339.114 51.375 337.576 46.378 337.576 39.8232V15.6069H346.923V41.4619C346.923 45.2653 347.753 48.0572 349.412 49.8375C351.07 51.6178 353.357 52.508 356.27 52.508C359.183 52.508 361.469 51.6178 363.128 49.8375C364.787 48.0572 365.616 45.2856 365.616 41.5226V15.6069H374.963V39.9446C374.963 46.4185 373.405 51.375 370.29 54.8143C367.174 58.2131 362.481 59.9125 356.209 59.9125Z" fill="#171717"/>
<path d="M310.701 59.9124C307.464 59.9124 304.47 59.3662 301.719 58.2737C299.008 57.1813 296.641 55.6437 294.618 53.6611C292.635 51.638 291.077 49.2508 289.944 46.4994C288.852 43.7075 288.306 40.6325 288.306 37.2741C288.306 32.8234 289.257 28.939 291.158 25.6212C293.06 22.2629 295.69 19.6531 299.048 17.7919C302.447 15.9306 306.311 15 310.641 15C315.051 15 318.935 15.9306 322.293 17.7919C325.652 19.6531 328.282 22.2629 330.184 25.6212C332.126 28.9795 333.097 32.8841 333.097 37.3348C333.097 40.6527 332.53 43.7075 331.397 46.4994C330.305 49.2508 328.747 51.638 326.724 53.6611C324.741 55.6437 322.374 57.1813 319.623 58.2737C316.912 59.3662 313.938 59.9124 310.701 59.9124ZM310.641 52.508C313.19 52.508 315.435 51.8606 317.377 50.5658C319.32 49.271 320.837 47.4907 321.929 45.2249C323.062 42.9185 323.629 40.2481 323.629 37.2135C323.629 34.2193 323.082 31.6095 321.99 29.3841C320.898 27.1587 319.38 25.4391 317.438 24.2253C315.496 23.0114 313.23 22.4045 310.641 22.4045C308.091 22.4045 305.846 23.0114 303.904 24.2253C301.962 25.4391 300.444 27.1587 299.352 29.3841C298.3 31.569 297.774 34.1788 297.774 37.2135C297.774 40.2885 298.32 42.9792 299.412 45.2856C300.505 47.5514 302.022 49.3317 303.964 50.6265C305.907 51.8808 308.132 52.508 310.641 52.508Z" fill="#171717"/>
<path d="M249.447 59.3055V15.6069H268.99C272.146 15.6069 274.898 16.1532 277.244 17.2456C279.591 18.2976 281.412 19.7947 282.707 21.7369C284.002 23.679 284.649 25.9449 284.649 28.5344C284.649 31.0835 284.002 33.3291 282.707 35.2713C281.412 37.173 279.591 38.6701 277.244 39.7625C274.898 40.8146 272.146 41.3406 268.99 41.3406H256.852V34.4823H268.748C270.973 34.4823 272.672 33.9765 273.846 32.965C275.06 31.913 275.666 30.4564 275.666 28.5951C275.666 26.6934 275.08 25.257 273.906 24.286C272.733 23.2744 271.013 22.7686 268.748 22.7686H258.794V59.3055H249.447ZM274.088 59.3055L256.548 36.6065H266.441L286.712 59.3055H274.088Z" fill="#171717"/>
<path d="M225.185 59.9124C220.451 59.9124 216.384 58.9818 212.985 57.1206C209.587 55.2594 206.957 52.6496 205.095 49.2913C203.275 45.9329 202.364 42.0082 202.364 37.5169C202.364 33.0661 203.295 29.1616 205.156 25.8033C207.017 22.4045 209.587 19.7542 212.864 17.8525C216.182 15.9508 220.026 15 224.396 15C227.997 15 231.213 15.6474 234.046 16.9422C236.918 18.2369 239.225 20.0172 240.965 22.2831C242.745 24.5085 243.797 27.098 244.121 30.0517H234.774C234.369 27.6645 233.236 25.8033 231.375 24.468C229.554 23.0923 227.268 22.4045 224.517 22.4045C221.968 22.4045 219.742 23.0114 217.841 24.2253C215.939 25.3986 214.462 27.098 213.41 29.3234C212.358 31.5488 211.832 34.2193 211.832 37.3348C211.832 40.5718 212.358 43.3434 213.41 45.6497C214.462 47.9156 216 49.6554 218.023 50.8693C220.086 52.0427 222.615 52.6293 225.609 52.6293C228.037 52.6293 230.101 52.3259 231.8 51.719C233.499 51.112 234.794 50.2623 235.684 49.1699L244.545 52.69C242.199 55.0368 239.468 56.8374 236.352 58.0917C233.277 59.3055 229.554 59.9124 225.185 59.9124ZM235.199 52.69V40.6729L237.08 42.5544H225.549V35.3927H244.545V52.69H235.199Z" fill="#171717"/>
<path d="M150.043 48.5405C158.88 48.5405 166.043 41.3771 166.043 32.5405C166.043 23.704 158.88 16.5405 150.043 16.5405C141.206 16.5405 134.043 23.704 134.043 32.5405C134.043 41.3771 141.206 48.5405 150.043 48.5405Z" fill="url(#paint0_linear_80_209)"/>
<path d="M28.524 26.3749C50.5897 4.86116 80.71 -3.48214 109.024 1.34406C117.884 2.85426 120.229 13.552 113.874 19.9074C110.839 22.9427 106.464 24.1213 102.206 23.5795C81.498 20.945 59.8364 27.5784 43.9332 43.4815C16.6469 70.7678 16.6469 115.008 43.9332 142.294C71.22 169.58 115.46 169.58 142.746 142.294C159.325 125.715 165.83 102.877 162.262 81.3861C161.534 77.0001 162.663 72.4241 165.806 69.2805C172 63.0865 182.435 65.1938 184.23 73.7671C190.441 103.425 182.034 135.532 159.009 158.557L158.155 159.401C122.11 194.545 64.57 194.544 28.524 159.401L27.6698 158.557C-8.59859 122.289 -8.59859 63.4864 27.6698 27.218L28.524 26.3749Z" fill="url(#paint1_linear_80_209)"/>
<defs>
<linearGradient id="paint0_linear_80_209" x1="166.043" y1="45.7173" x2="134.043" y2="19.3637" gradientUnits="userSpaceOnUse">
<stop stop-color="#171717"/>
<stop offset="1" stop-color="#7D7D7D"/>
</linearGradient>
<linearGradient id="paint1_linear_80_209" x1="-1.74393e-06" y1="14.5" x2="154.283" y2="163.283" gradientUnits="userSpaceOnUse">
<stop stop-color="white"/>
<stop offset="1" stop-color="#171717"/>
</linearGradient>
</defs>
</svg>
