<svg width="573" height="172" viewBox="0 0 573 172" fill="none" xmlns="http://www.w3.org/2000/svg">
<path d="M521.644 170.261V126.562H526.621V170.261H521.644ZM524.193 170.261V165.891H550.898V170.261H524.193ZM524.193 149.686V145.316H548.713V149.686H524.193ZM524.193 130.932V126.562H550.412V130.932H524.193Z" fill="#727272"/>
<path d="M494.9 170.868C490.449 170.868 486.585 169.958 483.308 168.137C480.03 166.316 477.501 163.767 475.721 160.49C473.941 157.172 473.051 153.267 473.051 148.776C473.051 144.285 473.92 140.34 475.66 136.941C477.441 133.502 479.889 130.811 483.004 128.869C486.16 126.927 489.781 125.956 493.868 125.956C497.065 125.956 499.958 126.562 502.547 127.776C505.177 128.99 507.322 130.669 508.98 132.814C510.68 134.958 511.712 137.447 512.076 140.279H507.099C506.694 137.285 505.298 134.898 502.911 133.117C500.564 131.337 497.611 130.447 494.05 130.447C490.854 130.447 488.062 131.216 485.675 132.753C483.287 134.25 481.426 136.354 480.091 139.065C478.796 141.776 478.149 144.973 478.149 148.655C478.149 152.337 478.816 155.513 480.152 158.183C481.527 160.813 483.49 162.836 486.039 164.253C488.628 165.669 491.724 166.377 495.325 166.377C497.793 166.377 499.998 166.033 501.94 165.345C503.882 164.617 505.642 163.504 507.22 162.007L512.197 163.828C509.972 166.174 507.402 167.935 504.489 169.108C501.616 170.281 498.42 170.868 494.9 170.868ZM507.22 163.828V149.686L509.102 151.568H495.264V147.198H512.197V163.828H507.22Z" fill="#727272"/>
<path d="M435.939 170.261V126.562H452.083C455.199 126.562 457.849 127.068 460.034 128.08C462.219 129.091 463.878 130.508 465.011 132.328C466.184 134.109 466.771 136.233 466.771 138.701C466.771 141.169 466.184 143.334 465.011 145.195C463.878 147.016 462.219 148.452 460.034 149.504C457.849 150.516 455.199 151.022 452.083 151.022H439.581V146.652H451.901C455.138 146.652 457.586 145.944 459.245 144.527C460.944 143.111 461.794 141.169 461.794 138.701C461.794 136.273 460.965 134.372 459.306 132.996C457.647 131.62 455.179 130.932 451.901 130.932H440.916V170.261H435.939ZM461.551 170.261L438.306 148.594H445.104L469.077 170.261H461.551Z" fill="#727272"/>
<path d="M399.192 170.261V126.562H404.169V170.261H399.192ZM401.741 170.261V165.891H428.445V170.261H401.741ZM401.741 149.686V145.316H426.261V149.686H401.741ZM401.741 130.932V126.562H427.96V130.932H401.741Z" fill="#727272"/>
<path d="M383.781 170.261V126.562H388.758V170.261H383.781Z" fill="#727272"/>
<path d="M357.307 170.868C354.313 170.868 351.541 170.322 348.992 169.229C346.483 168.096 344.298 166.539 342.437 164.556C340.576 162.533 339.139 160.166 338.128 157.455C337.116 154.704 336.611 151.689 336.611 148.412C336.611 145.134 337.116 142.14 338.128 139.429C339.139 136.678 340.556 134.311 342.376 132.328C344.238 130.305 346.423 128.747 348.931 127.655C351.48 126.522 354.252 125.956 357.246 125.956C360.523 125.956 363.457 126.623 366.046 127.958C368.676 129.294 370.821 131.175 372.48 133.603C374.179 136.031 375.231 138.863 375.636 142.1H370.659C370.174 138.499 368.737 135.666 366.35 133.603C364.003 131.499 360.989 130.447 357.307 130.447C354.191 130.447 351.46 131.216 349.113 132.753C346.766 134.25 344.946 136.354 343.651 139.065C342.356 141.736 341.709 144.851 341.709 148.412C341.709 151.972 342.356 155.108 343.651 157.819C344.946 160.49 346.766 162.594 349.113 164.131C351.46 165.628 354.171 166.377 357.246 166.377C361.009 166.377 364.084 165.325 366.471 163.221C368.899 161.117 370.335 158.284 370.78 154.724H375.757C375.353 157.961 374.301 160.793 372.601 163.221C370.942 165.648 368.798 167.53 366.168 168.865C363.578 170.2 360.625 170.868 357.307 170.868Z" fill="#727272"/>
<path d="M294.106 170.261V126.562H299.265L324.331 163.342L323.602 163.464V126.562H328.336V170.261H323.178L298.112 133.481L298.84 133.36V170.261H294.106Z" fill="#727272"/>
<path d="M265.026 170.868C261.991 170.868 259.199 170.322 256.65 169.229C254.142 168.096 251.957 166.518 250.096 164.495C248.234 162.432 246.778 160.024 245.726 157.273C244.714 154.521 244.208 151.507 244.208 148.23C244.208 143.9 245.099 140.056 246.879 136.698C248.659 133.34 251.107 130.71 254.223 128.808C257.379 126.906 260.96 125.956 264.965 125.956C269.052 125.956 272.653 126.906 275.768 128.808C278.924 130.71 281.393 133.34 283.173 136.698C284.953 140.056 285.843 143.921 285.843 148.29C285.843 151.568 285.317 154.582 284.265 157.334C283.254 160.085 281.817 162.472 279.956 164.495C278.095 166.518 275.89 168.096 273.341 169.229C270.792 170.322 268.02 170.868 265.026 170.868ZM264.965 166.377C268.081 166.377 270.812 165.608 273.159 164.07C275.546 162.492 277.407 160.328 278.742 157.576C280.078 154.825 280.745 151.689 280.745 148.169C280.745 144.689 280.078 141.614 278.742 138.944C277.448 136.273 275.607 134.19 273.219 132.692C270.873 131.195 268.121 130.447 264.965 130.447C261.809 130.447 259.058 131.195 256.711 132.692C254.364 134.19 252.543 136.273 251.249 138.944C249.954 141.574 249.307 144.649 249.307 148.169C249.307 151.73 249.954 154.886 251.249 157.637C252.584 160.348 254.425 162.492 256.772 164.07C259.118 165.608 261.85 166.377 264.965 166.377Z" fill="#727272"/>
<path d="M220.274 170.868C217.28 170.868 214.508 170.322 211.959 169.229C209.451 168.096 207.266 166.539 205.404 164.556C203.543 162.533 202.107 160.166 201.095 157.455C200.084 154.704 199.578 151.689 199.578 148.412C199.578 145.134 200.084 142.14 201.095 139.429C202.107 136.678 203.523 134.311 205.344 132.328C207.205 130.305 209.39 128.747 211.899 127.655C214.448 126.522 217.219 125.956 220.213 125.956C223.491 125.956 226.424 126.623 229.014 127.958C231.644 129.294 233.788 131.175 235.447 133.603C237.147 136.031 238.199 138.863 238.603 142.1H233.626C233.141 138.499 231.705 135.666 229.317 133.603C226.971 131.499 223.956 130.447 220.274 130.447C217.159 130.447 214.427 131.216 212.081 132.753C209.734 134.25 207.913 136.354 206.618 139.065C205.324 141.736 204.676 144.851 204.676 148.412C204.676 151.972 205.324 155.108 206.618 157.819C207.913 160.49 209.734 162.594 212.081 164.131C214.427 165.628 217.138 166.377 220.213 166.377C223.976 166.377 227.051 165.325 229.439 163.221C231.866 161.117 233.303 158.284 233.748 154.724H238.725C238.32 157.961 237.268 160.793 235.569 163.221C233.91 165.648 231.765 167.53 229.135 168.865C226.546 170.2 223.592 170.868 220.274 170.868Z" fill="#727272"/>
<path d="M549.391 113.783V77.246H535.129V70.084H573.001V77.246H558.738V113.783H549.391Z" fill="#171717"/>
<path d="M497.405 113.783V70.084H516.948C520.104 70.084 522.855 70.631 525.202 71.723C527.549 72.775 529.37 74.272 530.664 76.214C531.959 78.157 532.606 80.422 532.606 83.012C532.606 85.561 531.959 87.807 530.664 89.749C529.37 91.651 527.549 93.148 525.202 94.24C522.855 95.292 520.104 95.818 516.948 95.818H504.809V88.96H516.705C518.93 88.96 520.63 88.454 521.803 87.443C523.017 86.391 523.624 84.934 523.624 83.073C523.624 81.171 523.037 79.735 521.864 78.764C520.691 77.752 518.971 77.246 516.705 77.246H506.751V113.783H497.405ZM522.046 113.783L504.506 91.084H514.399L534.67 113.783H522.046Z" fill="#171717"/>
<path d="M470.405 114.39C467.169 114.39 464.174 113.844 461.423 112.752C458.712 111.659 456.345 110.122 454.322 108.139C452.339 106.116 450.782 103.729 449.649 100.977C448.556 98.186 448.01 95.11 448.01 91.752C448.01 87.301 448.961 83.417 450.862 80.099C452.764 76.741 455.394 74.131 458.753 72.27C462.151 70.409 466.015 69.478 470.345 69.478C474.755 69.478 478.639 70.409 481.998 72.27C485.356 74.131 487.986 76.741 489.888 80.099C491.83 83.458 492.801 87.362 492.801 91.813C492.801 95.131 492.235 98.186 491.102 100.977C490.009 103.729 488.451 106.116 486.428 108.139C484.446 110.122 482.079 111.659 479.327 112.752C476.616 113.844 473.642 114.39 470.405 114.39ZM470.345 106.986C472.894 106.986 475.139 106.339 477.082 105.044C479.024 103.749 480.541 101.969 481.634 99.703C482.767 97.397 483.333 94.726 483.333 91.691C483.333 88.697 482.787 86.088 481.694 83.862C480.602 81.637 479.085 79.917 477.142 78.703C475.2 77.489 472.934 76.883 470.345 76.883C467.796 76.883 465.55 77.489 463.608 78.703C461.666 79.917 460.148 81.637 459.056 83.862C458.004 86.047 457.478 88.657 457.478 91.691C457.478 94.767 458.024 97.457 459.117 99.764C460.209 102.029 461.726 103.81 463.669 105.105C465.611 106.359 467.836 106.986 470.345 106.986Z" fill="#171717"/>
<path d="M408.683 113.783V70.084H429.44C432.677 70.084 435.449 70.651 437.755 71.784C440.102 72.917 441.902 74.495 443.156 76.518C444.451 78.541 445.099 80.908 445.099 83.619C445.099 86.33 444.451 88.717 443.156 90.781C441.862 92.844 440.041 94.463 437.694 95.636C435.388 96.769 432.636 97.335 429.44 97.335H416.088V90.174H428.954C431.099 90.174 432.758 89.587 433.931 88.414C435.145 87.2 435.752 85.622 435.752 83.68C435.752 81.737 435.145 80.18 433.931 79.006C432.758 77.833 431.099 77.246 428.954 77.246H418.03V113.783H408.683Z" fill="#171717"/>
<path d="M387.056 114.329C381.391 114.329 376.859 113.075 373.46 110.567C370.062 108.017 368.079 104.437 367.513 99.824H376.495C376.778 102.171 377.911 104.032 379.894 105.408C381.876 106.743 384.405 107.41 387.48 107.41C389.989 107.41 391.911 106.965 393.246 106.075C394.622 105.185 395.31 103.991 395.31 102.494C395.31 101.078 394.905 99.945 394.096 99.096C393.287 98.205 391.891 97.497 389.908 96.971L381.775 94.726C377.608 93.552 374.553 91.954 372.611 89.931C370.709 87.868 369.758 85.298 369.758 82.223C369.758 79.593 370.426 77.327 371.761 75.426C373.137 73.483 375.059 72.007 377.527 70.995C379.995 69.943 382.888 69.417 386.206 69.417C391.304 69.417 395.37 70.631 398.405 73.059C401.44 75.446 403.159 78.622 403.564 82.587H394.581C394.177 80.443 393.186 78.865 391.608 77.853C390.07 76.842 388.087 76.336 385.66 76.336C383.556 76.336 381.876 76.741 380.622 77.55C379.368 78.359 378.741 79.451 378.741 80.827C378.741 81.879 379.085 82.85 379.772 83.74C380.46 84.59 381.897 85.318 384.082 85.925L392.214 88.171C396.503 89.344 399.578 90.963 401.44 93.026C403.341 95.049 404.292 97.619 404.292 100.734C404.292 105.104 402.775 108.462 399.74 110.809C396.706 113.156 392.477 114.329 387.056 114.329Z" fill="#171717"/>
<path d="M325.408 113.783V70.084H337.486L356.908 108.685L353.934 109.413V70.084H363.038V113.783H350.96L331.538 75.183L334.512 74.454V113.783H325.408Z" fill="#171717"/>
<path d="M279.141 113.783L294.799 70.084H302.811L288.427 113.783H279.141ZM311.186 113.783L296.863 70.084H305.238L320.897 113.783H311.186ZM287.395 96.849H311.915V104.132H287.395V96.849Z" fill="#171717"/>
<path d="M239.935 113.783V70.084H259.478C262.634 70.084 265.386 70.63 267.732 71.723C270.079 72.775 271.9 74.272 273.195 76.214C274.489 78.156 275.137 80.422 275.137 83.011C275.137 85.561 274.489 87.806 273.195 89.748C271.9 91.65 270.079 93.147 267.732 94.24C265.386 95.292 262.634 95.818 259.478 95.818H247.34V88.959H259.235C261.461 88.959 263.16 88.454 264.334 87.442C265.547 86.39 266.154 84.933 266.154 83.072C266.154 81.17 265.568 79.734 264.394 78.763C263.221 77.751 261.501 77.246 259.235 77.246H249.282V113.783H239.935ZM264.576 113.783L247.036 91.084H256.929L277.2 113.783H264.576Z" fill="#171717"/>
<path d="M212.263 113.783V77.246H198V70.084H235.872V77.246H221.609V113.783H212.263Z" fill="#171717"/>
<path d="M425.946 57.3055V50.0224H436.992C440.148 50.0224 442.818 49.3953 445.003 48.141C447.229 46.8462 448.908 45.0861 450.041 42.8607C451.214 40.6353 451.801 38.0862 451.801 35.2135C451.801 32.3811 451.234 29.8928 450.102 27.7483C448.969 25.6038 447.289 23.9247 445.064 22.7108C442.879 21.497 440.188 20.89 436.992 20.89H426.128V13.6069H436.992C441.888 13.6069 446.157 14.4971 449.798 16.2774C453.44 18.0173 456.252 20.5259 458.234 23.8033C460.257 27.0402 461.269 30.8841 461.269 35.3348C461.269 39.7856 460.257 43.6699 458.234 46.9878C456.211 50.2652 453.379 52.8143 449.737 54.6351C446.136 56.4154 441.908 57.3055 437.053 57.3055H425.946ZM420.241 57.3055V13.6069H429.587V57.3055H420.241Z" fill="#171717"/>
<path d="M376.559 57.3055V13.6069H388.637L408.058 52.2074L405.084 52.9357V13.6069H414.188V57.3055H402.11L382.689 18.7051L385.663 17.9768V57.3055H376.559Z" fill="#171717"/>
<path d="M352.209 57.9125C345.978 57.9125 341.305 56.2131 338.189 52.8143C335.114 49.375 333.576 44.378 333.576 37.8232V13.6069H342.923V39.4619C342.923 43.2653 343.753 46.0572 345.412 47.8375C347.07 49.6178 349.357 50.508 352.27 50.508C355.183 50.508 357.469 49.6178 359.128 47.8375C360.787 46.0572 361.616 43.2856 361.616 39.5226V13.6069H370.963V37.9446C370.963 44.4185 369.405 49.375 366.29 52.8143C363.174 56.2131 358.481 57.9125 352.209 57.9125Z" fill="#171717"/>
<path d="M306.701 57.9124C303.464 57.9124 300.47 57.3662 297.719 56.2737C295.008 55.1813 292.641 53.6437 290.618 51.6611C288.635 49.638 287.077 47.2508 285.944 44.4994C284.852 41.7075 284.306 38.6325 284.306 35.2741C284.306 30.8234 285.257 26.939 287.158 23.6212C289.06 20.2629 291.69 17.6531 295.048 15.7919C298.447 13.9306 302.311 13 306.641 13C311.051 13 314.935 13.9306 318.293 15.7919C321.652 17.6531 324.282 20.2629 326.184 23.6212C328.126 26.9795 329.097 30.8841 329.097 35.3348C329.097 38.6527 328.53 41.7075 327.397 44.4994C326.305 47.2508 324.747 49.638 322.724 51.6611C320.741 53.6437 318.374 55.1813 315.623 56.2737C312.912 57.3662 309.938 57.9124 306.701 57.9124ZM306.641 50.508C309.19 50.508 311.435 49.8606 313.377 48.5658C315.32 47.271 316.837 45.4907 317.929 43.2249C319.062 40.9185 319.629 38.2481 319.629 35.2135C319.629 32.2193 319.082 29.6095 317.99 27.3841C316.898 25.1587 315.38 23.4391 313.438 22.2253C311.496 21.0114 309.23 20.4045 306.641 20.4045C304.091 20.4045 301.846 21.0114 299.904 22.2253C297.962 23.4391 296.444 25.1587 295.352 27.3841C294.3 29.569 293.774 32.1788 293.774 35.2135C293.774 38.2885 294.32 40.9792 295.412 43.2856C296.505 45.5514 298.022 47.3317 299.964 48.6265C301.907 49.8808 304.132 50.508 306.641 50.508Z" fill="#171717"/>
<path d="M245.447 57.3055V13.6069H264.99C268.146 13.6069 270.898 14.1532 273.244 15.2456C275.591 16.2976 277.412 17.7947 278.707 19.7369C280.002 21.679 280.649 23.9449 280.649 26.5344C280.649 29.0835 280.002 31.3291 278.707 33.2713C277.412 35.173 275.591 36.6701 273.244 37.7625C270.898 38.8146 268.146 39.3406 264.99 39.3406H252.852V32.4823H264.748C266.973 32.4823 268.672 31.9765 269.846 30.965C271.06 29.913 271.666 28.4564 271.666 26.5951C271.666 24.6934 271.08 23.257 269.906 22.286C268.733 21.2744 267.013 20.7686 264.748 20.7686H254.794V57.3055H245.447ZM270.088 57.3055L252.548 34.6065H262.441L282.712 57.3055H270.088Z" fill="#171717"/>
<path d="M221.185 57.9124C216.451 57.9124 212.384 56.9818 208.985 55.1206C205.587 53.2594 202.957 50.6496 201.095 47.2913C199.275 43.9329 198.364 40.0082 198.364 35.5169C198.364 31.0661 199.295 27.1616 201.156 23.8033C203.017 20.4045 205.587 17.7542 208.864 15.8525C212.182 13.9508 216.026 13 220.396 13C223.997 13 227.213 13.6474 230.046 14.9422C232.918 16.2369 235.225 18.0172 236.965 20.2831C238.745 22.5085 239.797 25.098 240.121 28.0517H230.774C230.369 25.6645 229.236 23.8033 227.375 22.468C225.554 21.0923 223.268 20.4045 220.517 20.4045C217.968 20.4045 215.742 21.0114 213.841 22.2253C211.939 23.3986 210.462 25.098 209.41 27.3234C208.358 29.5488 207.832 32.2193 207.832 35.3348C207.832 38.5718 208.358 41.3434 209.41 43.6497C210.462 45.9156 212 47.6554 214.023 48.8693C216.086 50.0427 218.615 50.6293 221.609 50.6293C224.037 50.6293 226.101 50.3259 227.8 49.719C229.499 49.112 230.794 48.2623 231.684 47.1699L240.545 50.69C238.199 53.0368 235.468 54.8374 232.352 56.0917C229.277 57.3055 225.554 57.9124 221.185 57.9124ZM231.199 50.69V38.6729L233.08 40.5544H221.549V33.3927H240.545V50.69H231.199Z" fill="#171717"/>
<path d="M138.709 44.0176C146.717 44.0176 153.209 37.5257 153.209 29.5176C153.209 21.5094 146.717 15.0176 138.709 15.0176C130.701 15.0176 124.209 21.5094 124.209 29.5176C124.209 37.5257 130.701 44.0176 138.709 44.0176Z" fill="url(#paint0_linear_87_2)"/>
<path d="M26.0382 24.283C46.3527 4.47676 74.0826 -3.20439 100.15 1.23878C108.306 2.62913 110.465 12.4778 104.615 18.3288C101.821 21.1232 97.7927 22.2083 93.8727 21.7095C74.8081 19.2841 54.8656 25.391 40.2245 40.032C15.1037 65.1528 15.1037 105.882 40.2245 131.002C65.3458 156.123 106.075 156.123 131.195 131.002C146.459 115.739 152.447 94.7138 149.162 74.9284C148.492 70.8904 149.532 66.6776 152.425 63.7835C158.128 58.0811 167.735 60.0211 169.387 67.914C175.105 95.2183 167.365 124.777 146.168 145.975L145.381 146.752C112.197 179.107 59.2235 179.106 26.0382 146.752L25.2518 145.975C-8.13829 112.585 -8.13829 58.4492 25.2518 25.0592L26.0382 24.283Z" fill="url(#paint1_linear_87_2)"/>
<defs>
<linearGradient id="paint0_linear_87_2" x1="153.209" y1="41.4591" x2="124.209" y2="17.5761" gradientUnits="userSpaceOnUse">
<stop stop-color="#171717"/>
<stop offset="1" stop-color="#7D7D7D"/>
</linearGradient>
<linearGradient id="paint1_linear_87_2" x1="-0.222097" y1="13.3506" x2="141.816" y2="150.326" gradientUnits="userSpaceOnUse">
<stop stop-color="white"/>
<stop offset="1" stop-color="#171717"/>
</linearGradient>
</defs>
</svg>
